<svg id="Layer_1" data-name="Layer 1" xmlns="http://www.w3.org/2000/svg" viewBox="0 0 202.25 164.36"><defs><style>.cls-1{fill:#fff;}</style></defs><title>twitter</title><path class="cls-1" d="M522.07,234.91a83,83,0,0,1-23.83,6.53,41.62,41.62,0,0,0,18.24-23,83,83,0,0,1-26.35,10.07,41.53,41.53,0,0,0-70.71,37.85,117.8,117.8,0,0,1-85.53-43.35,41.54,41.54,0,0,0,12.84,55.4,41.31,41.31,0,0,1-18.79-5.19c0,.17,0,.35,0,.52a41.52,41.52,0,0,0,33.28,40.69,41.56,41.56,0,0,1-18.74.71A41.54,41.54,0,0,0,381.25,344a83.75,83.75,0,0,1-61.43,17.18,117.43,117.43,0,0,0,63.61,18.64c76.32,0,118.06-63.23,118.06-118.06q0-2.7-.12-5.37A84.32,84.32,0,0,0,522.07,234.91Z" transform="translate(-319.82 -215.46)"/></svg>